<mxfile host="app.diagrams.net" agent="Mozilla/5.0 (Windows NT 10.0; Win64; x64) AppleWebKit/537.36 (KHTML, like Gecko) Chrome/130.0.0.0 Safari/537.36" version="24.8.3">
  <diagram name="PÃ¡gina-1" id="jTIQsuxJlyv9u8pRp-Ev">
    <mxGraphModel dx="1859" dy="510" grid="1" gridSize="10" guides="1" tooltips="1" connect="1" arrows="1" fold="1" page="1" pageScale="1" pageWidth="827" pageHeight="1169" math="0" shadow="0">
      <root>
        <mxCell id="0" />
        <mxCell id="1" parent="0" />
        <mxCell id="rrgzs2JkOeLv4DAcx9xF-1" value="users" style="swimlane;childLayout=stackLayout;horizontal=1;startSize=50;horizontalStack=0;rounded=1;fontSize=14;fontStyle=0;strokeWidth=2;resizeParent=0;resizeLast=1;shadow=0;dashed=0;align=center;arcSize=4;whiteSpace=wrap;html=1;" parent="1" vertex="1">
          <mxGeometry y="50" width="160" height="150" as="geometry">
            <mxRectangle y="50" width="70" height="50" as="alternateBounds" />
          </mxGeometry>
        </mxCell>
        <mxCell id="rrgzs2JkOeLv4DAcx9xF-2" value="&lt;div&gt;+ id&lt;/div&gt;&lt;div&gt;+ username&lt;/div&gt;&lt;div&gt;+ email&lt;/div&gt;&lt;div&gt;+ password&lt;/div&gt;" style="align=left;strokeColor=none;fillColor=none;spacingLeft=4;fontSize=12;verticalAlign=top;resizable=0;rotatable=0;part=1;html=1;" parent="rrgzs2JkOeLv4DAcx9xF-1" vertex="1">
          <mxGeometry y="50" width="160" height="100" as="geometry" />
        </mxCell>
        <mxCell id="vrtEVJfEXGSc9iZ1PhCA-12" style="edgeStyle=orthogonalEdgeStyle;rounded=0;orthogonalLoop=1;jettySize=auto;html=1;entryX=1;entryY=0.25;entryDx=0;entryDy=0;" edge="1" parent="1" source="vrtEVJfEXGSc9iZ1PhCA-1" target="vrtEVJfEXGSc9iZ1PhCA-10">
          <mxGeometry relative="1" as="geometry" />
        </mxCell>
        <mxCell id="vrtEVJfEXGSc9iZ1PhCA-1" value="messages" style="swimlane;childLayout=stackLayout;horizontal=1;startSize=50;horizontalStack=0;rounded=1;fontSize=14;fontStyle=0;strokeWidth=2;resizeParent=0;resizeLast=1;shadow=0;dashed=0;align=center;arcSize=4;whiteSpace=wrap;html=1;" vertex="1" parent="1">
          <mxGeometry x="400" y="200" width="160" height="120" as="geometry" />
        </mxCell>
        <mxCell id="vrtEVJfEXGSc9iZ1PhCA-2" value="+ id&lt;div&gt;+ id_chat&lt;/div&gt;&lt;div&gt;+ message&lt;/div&gt;" style="align=left;strokeColor=none;fillColor=none;spacingLeft=4;fontSize=12;verticalAlign=top;resizable=0;rotatable=0;part=1;html=1;" vertex="1" parent="vrtEVJfEXGSc9iZ1PhCA-1">
          <mxGeometry y="50" width="160" height="70" as="geometry" />
        </mxCell>
        <mxCell id="vrtEVJfEXGSc9iZ1PhCA-3" value="user_info" style="swimlane;childLayout=stackLayout;horizontal=1;startSize=50;horizontalStack=0;rounded=1;fontSize=14;fontStyle=0;strokeWidth=2;resizeParent=0;resizeLast=1;shadow=0;dashed=0;align=center;arcSize=4;whiteSpace=wrap;html=1;" vertex="1" parent="1">
          <mxGeometry x="-260" y="50" width="160" height="150" as="geometry">
            <mxRectangle x="-210" y="50" width="100" height="50" as="alternateBounds" />
          </mxGeometry>
        </mxCell>
        <mxCell id="vrtEVJfEXGSc9iZ1PhCA-4" value="+ id&lt;div&gt;+ id_user&lt;br&gt;&lt;div&gt;+ firstname&lt;/div&gt;&lt;div&gt;+ lastname&lt;/div&gt;&lt;div&gt;+ birthday&lt;/div&gt;&lt;/div&gt;" style="align=left;strokeColor=none;fillColor=none;spacingLeft=4;fontSize=12;verticalAlign=top;resizable=0;rotatable=0;part=1;html=1;" vertex="1" parent="vrtEVJfEXGSc9iZ1PhCA-3">
          <mxGeometry y="50" width="160" height="100" as="geometry" />
        </mxCell>
        <mxCell id="vrtEVJfEXGSc9iZ1PhCA-5" value="chat_info" style="swimlane;childLayout=stackLayout;horizontal=1;startSize=50;horizontalStack=0;rounded=1;fontSize=14;fontStyle=0;strokeWidth=2;resizeParent=0;resizeLast=1;shadow=0;dashed=0;align=center;arcSize=4;whiteSpace=wrap;html=1;" vertex="1" parent="1">
          <mxGeometry x="570" y="40" width="160" height="120" as="geometry">
            <mxRectangle x="580" y="50" width="140" height="50" as="alternateBounds" />
          </mxGeometry>
        </mxCell>
        <mxCell id="vrtEVJfEXGSc9iZ1PhCA-6" value="+ id&lt;div&gt;+ id_chat&lt;/div&gt;&lt;div&gt;+ id_user_invited&lt;/div&gt;" style="align=left;strokeColor=none;fillColor=none;spacingLeft=4;fontSize=12;verticalAlign=top;resizable=0;rotatable=0;part=1;html=1;" vertex="1" parent="vrtEVJfEXGSc9iZ1PhCA-5">
          <mxGeometry y="50" width="160" height="70" as="geometry" />
        </mxCell>
        <mxCell id="vrtEVJfEXGSc9iZ1PhCA-7" style="edgeStyle=orthogonalEdgeStyle;rounded=0;orthogonalLoop=1;jettySize=auto;html=1;entryX=0.017;entryY=0.173;entryDx=0;entryDy=0;entryPerimeter=0;" edge="1" parent="1" source="vrtEVJfEXGSc9iZ1PhCA-3" target="rrgzs2JkOeLv4DAcx9xF-2">
          <mxGeometry relative="1" as="geometry" />
        </mxCell>
        <mxCell id="vrtEVJfEXGSc9iZ1PhCA-9" value="chat_user" style="swimlane;childLayout=stackLayout;horizontal=1;startSize=50;horizontalStack=0;rounded=1;fontSize=14;fontStyle=0;strokeWidth=2;resizeParent=0;resizeLast=1;shadow=0;dashed=0;align=center;arcSize=4;whiteSpace=wrap;html=1;" vertex="1" parent="1">
          <mxGeometry x="252" y="40" width="160" height="120" as="geometry">
            <mxRectangle x="580" y="50" width="140" height="50" as="alternateBounds" />
          </mxGeometry>
        </mxCell>
        <mxCell id="vrtEVJfEXGSc9iZ1PhCA-10" value="+ id&lt;div&gt;+ id_user&lt;/div&gt;&lt;div&gt;+ chat_type&lt;/div&gt;" style="align=left;strokeColor=none;fillColor=none;spacingLeft=4;fontSize=12;verticalAlign=top;resizable=0;rotatable=0;part=1;html=1;" vertex="1" parent="vrtEVJfEXGSc9iZ1PhCA-9">
          <mxGeometry y="50" width="160" height="70" as="geometry" />
        </mxCell>
        <mxCell id="vrtEVJfEXGSc9iZ1PhCA-13" style="edgeStyle=orthogonalEdgeStyle;rounded=0;orthogonalLoop=1;jettySize=auto;html=1;entryX=1;entryY=0.25;entryDx=0;entryDy=0;" edge="1" parent="1" source="vrtEVJfEXGSc9iZ1PhCA-6" target="vrtEVJfEXGSc9iZ1PhCA-10">
          <mxGeometry relative="1" as="geometry" />
        </mxCell>
        <mxCell id="vrtEVJfEXGSc9iZ1PhCA-14" style="edgeStyle=orthogonalEdgeStyle;rounded=0;orthogonalLoop=1;jettySize=auto;html=1;entryX=-0.006;entryY=0.407;entryDx=0;entryDy=0;entryPerimeter=0;" edge="1" parent="1" source="rrgzs2JkOeLv4DAcx9xF-2" target="vrtEVJfEXGSc9iZ1PhCA-10">
          <mxGeometry relative="1" as="geometry" />
        </mxCell>
        <mxCell id="vrtEVJfEXGSc9iZ1PhCA-16" value="friends" style="swimlane;childLayout=stackLayout;horizontal=1;startSize=50;horizontalStack=0;rounded=1;fontSize=14;fontStyle=0;strokeWidth=2;resizeParent=0;resizeLast=1;shadow=0;dashed=0;align=center;arcSize=4;whiteSpace=wrap;html=1;" vertex="1" parent="1">
          <mxGeometry x="-260" y="250" width="160" height="150" as="geometry">
            <mxRectangle x="-210" y="250" width="80" height="50" as="alternateBounds" />
          </mxGeometry>
        </mxCell>
        <mxCell id="vrtEVJfEXGSc9iZ1PhCA-17" value="&lt;div&gt;+ id&lt;/div&gt;&lt;div&gt;+ id_user&lt;/div&gt;&lt;div&gt;+ id_friend&lt;/div&gt;&lt;div&gt;+ status_friend&lt;/div&gt;" style="align=left;strokeColor=none;fillColor=none;spacingLeft=4;fontSize=12;verticalAlign=top;resizable=0;rotatable=0;part=1;html=1;" vertex="1" parent="vrtEVJfEXGSc9iZ1PhCA-16">
          <mxGeometry y="50" width="160" height="100" as="geometry" />
        </mxCell>
        <mxCell id="vrtEVJfEXGSc9iZ1PhCA-18" style="edgeStyle=orthogonalEdgeStyle;rounded=0;orthogonalLoop=1;jettySize=auto;html=1;entryX=0.006;entryY=0.186;entryDx=0;entryDy=0;entryPerimeter=0;" edge="1" parent="1" source="vrtEVJfEXGSc9iZ1PhCA-17" target="rrgzs2JkOeLv4DAcx9xF-2">
          <mxGeometry relative="1" as="geometry" />
        </mxCell>
      </root>
    </mxGraphModel>
  </diagram>
</mxfile>
